<svg width="50" height="50" viewBox="0 0 50 50" fill="none" xmlns="http://www.w3.org/2000/svg">
<g clip-path="url(#clip0_94_11)">
<path d="M40.4791 27.0312C40.5625 26.3646 40.625 25.6875 40.625 25C40.625 24.3125 40.5625 23.6354 40.4791 22.9687L44.8854 19.5208C45.2812 19.2083 45.3958 18.6458 45.1354 18.1875L40.9687 10.9687C40.7083 10.5208 40.1666 10.3333 39.6979 10.5208L34.5104 12.6146C33.4374 11.7917 32.2604 11.0937 30.9895 10.5625L30.2083 5.04166C30.1145 4.55207 29.6874 4.16666 29.1666 4.16666H20.8333C20.3124 4.16666 19.8854 4.55207 19.802 5.04166L19.0208 10.5625C17.7499 11.0937 16.5729 11.7812 15.4999 12.6146L10.3124 10.5208C9.8437 10.3437 9.30203 10.5208 9.04161 10.9687L4.87495 18.1875C4.61453 18.6354 4.72911 19.1979 5.12495 19.5208L9.52078 22.9687C9.43745 23.6354 9.37495 24.3125 9.37495 25C9.37495 25.6875 9.43745 26.3646 9.52078 27.0312L5.12495 30.4792C4.72911 30.7917 4.61453 31.3542 4.87495 31.8125L9.04161 39.0312C9.30203 39.4792 9.8437 39.6667 10.3124 39.4792L15.4999 37.3854C16.5729 38.2083 17.7499 38.9062 19.0208 39.4375L19.802 44.9583C19.8854 45.4479 20.3124 45.8333 20.8333 45.8333H29.1666C29.6874 45.8333 30.1145 45.4479 30.1979 44.9583L30.9791 39.4375C32.2499 38.9062 33.427 38.2187 34.4999 37.3854L39.6874 39.4792C40.1562 39.6562 40.6979 39.4792 40.9583 39.0312L45.125 31.8125C45.3854 31.3646 45.2708 30.8021 44.875 30.4792L40.4791 27.0312ZM24.9999 32.2917C20.9687 32.2917 17.7083 29.0312 17.7083 25C17.7083 20.9687 20.9687 17.7083 24.9999 17.7083C29.0312 17.7083 32.2916 20.9687 32.2916 25C32.2916 29.0312 29.0312 32.2917 24.9999 32.2917Z" fill="white"/>
</g>
<defs>
<clipPath id="clip0_94_11">
<rect width="50" height="50" fill="white"/>
</clipPath>
</defs>
</svg>
